<svg xmlns="http://www.w3.org/2000/svg" viewBox="0 0 32 32" id="synchronization"><path d="M5.024,10.7a1,1,0,0,1-.374-.78V6.96a1,1,0,1,1,2,0v.017a12.994,12.994,0,0,1,17.505-1.1A1,1,0,0,1,22.9,7.431a10.99,10.99,0,0,0-14.8.921l.22-.049a1,1,0,1,1,.434,1.952l-2.89.641a1,1,0,0,1-.843-.2Zm9.622,14.446A1,1,0,1,0,13.171,26.5l.153.167A10.995,10.995,0,0,1,5.129,14.309,1,1,0,0,0,3.152,14,12.993,12.993,0,0,0,12.86,28.609l-.014.008a1,1,0,0,0,1,1.733l2.563-1.48a1,1,0,0,0,.237-1.542ZM29.505,10.693,26.941,9.212a1,1,0,0,0-1.454.565L24.6,12.6a1,1,0,0,0,.653,1.254.989.989,0,0,0,.3.047,1,1,0,0,0,.954-.7l.067-.215a11,11,0,0,1-6.6,13.274,1,1,0,1,0,.72,1.865,12.99,12.99,0,0,0,7.8-15.711l.016.009a1,1,0,1,0,1-1.731Z"></path></svg>